<?xml version="1.0" encoding="UTF-8"?>
<svg version="1.1" viewBox="0 0 125.28506 71.395879" xmlns="http://www.w3.org/2000/svg" xmlns:xlink="http://www.w3.org/1999/xlink">
 <defs>
  <linearGradient id="b">
   <stop stop-color="#ffd6d6" offset="0"/>
   <stop stop-color="#bd001a" offset="1"/>
  </linearGradient>
  <linearGradient id="a">
   <stop stop-color="#003fff" offset="0"/>
   <stop stop-color="#0029a7" offset=".83304"/>
   <stop stop-color="#001d72" offset="1"/>
  </linearGradient>
  <pattern id="aa" xlink:href="#s" patternTransform="matrix(.48773 0 0 1.8693 243.45 232.34)"/>
  <pattern id="s" width="3" height="1" patternTransform="translate(0) scale(10)" patternUnits="userSpaceOnUse">
   <rect y="-.5" width="1" height="2"/>
  </pattern>
  <pattern id="ab" xlink:href="#t" patternTransform="matrix(.48773 0 0 1.8693 287.45 237.14)"/>
  <pattern id="t" width="3" height="1" patternTransform="translate(0) scale(10)" patternUnits="userSpaceOnUse">
   <rect y="-.5" width="1" height="2"/>
  </pattern>
  <pattern id="ad" xlink:href="#v" patternTransform="matrix(.48773 0 0 1.8693 244.01 204.82)"/>
  <pattern id="v" width="3" height="1" patternTransform="translate(0) scale(10)" patternUnits="userSpaceOnUse">
   <rect y="-.5" width="1" height="2"/>
  </pattern>
  <pattern id="ac" xlink:href="#u" patternTransform="matrix(.48773 0 0 1.8693 286.75 209.05)"/>
  <pattern id="u" width="3" height="1" patternTransform="translate(0) scale(10)" patternUnits="userSpaceOnUse">
   <rect y="-.5" width="1" height="2"/>
  </pattern>
  <linearGradient id="w" x1="274.99" x2="342.85" y1="298.83" y2="298.83" gradientUnits="userSpaceOnUse">
   <stop stop-color="#f00" offset="0"/>
   <stop stop-color="#ba0000" offset=".74546"/>
   <stop stop-color="#8e0000" offset="1"/>
  </linearGradient>
  <linearGradient id="x" x1="274.99" x2="343.35" y1="282.77" y2="282.77" gradientUnits="userSpaceOnUse" xlink:href="#a"/>
  <linearGradient id="y" x1="274.23" x2="343.93" y1="311.83" y2="311.83" gradientUnits="userSpaceOnUse" xlink:href="#a"/>
  <radialGradient id="ae" cx="303.86" cy="278.35" r="29.245" gradientTransform="matrix(1 0 0 .19645 0 220.05)" gradientUnits="userSpaceOnUse">
   <stop stop-color="#e8be8a" offset="0"/>
   <stop stop-color="#aa8050" offset="1"/>
  </radialGradient>
  <radialGradient id="af" cx="309.24" cy="272.66" r="34.062" gradientTransform="matrix(1 0 0 .27792 0 196.88)" gradientUnits="userSpaceOnUse" xlink:href="#a"/>
  <linearGradient id="z" x1="275.24" x2="342.72" y1="298.44" y2="298.44" gradientUnits="userSpaceOnUse">
   <stop stop-color="#fff7a8" offset="0"/>
   <stop stop-color="#ffe567" offset="1"/>
  </linearGradient>
  <radialGradient id="ag" cx="297.24" cy="272.01" r="4.703" gradientTransform="matrix(.096316 .87711 -1.0723 .11775 560.29 -20.943)" gradientUnits="userSpaceOnUse" xlink:href="#b"/>
  <radialGradient id="ah" cx="265.62" cy="322.52" r="4.6984" gradientTransform="matrix(-.44736 .77911 -.59312 -.34056 575.73 225.14)" gradientUnits="userSpaceOnUse" xlink:href="#b"/>
 </defs>
 <g transform="translate(-242.31 -255.46)">
  <path d="m275.9 273.03 65.534 1.2627c1.4306-1.424 0.46107-3.0582 1e-5 -4.1669-2.0018-3.3364-17.881-6.4137-29.673-6.4397-23.186-0.0512-32.325 4.672-32.325 4.672-2.7258 1.9994-3.1053 3.3284-3.5355 4.672z" fill="#fff" fill-rule="evenodd" stroke="#800080" stroke-width=".35433"/>
  <path d="m308.01 268.7c25.713 0.82141 30 4.7321 30 4.7321s-5.3981 5.7858-30.268 5.625c-27.086-0.17515-26.936-5.3814-26.936-5.3814s3.8467-5.7219 27.204-4.9757z" fill="url(#ae)" fill-rule="evenodd" stroke="#000" stroke-width="1.063"/>
  <path d="m280.94 274.15s0.48379-5.5421 26.29-5.5421c23.283 0 30.804 5.4464 30.804 5.4464l1.25-2.5c0.22685-2.0476-16.768-6.8279-31.964-5.625-14.883 1.1781-26.565 1.7857-28.304 6.25z" fill="#00125f" fill-rule="evenodd" stroke="#000" stroke-width="1.063"/>
  <path d="m301.51 275.11a4.1669 4.5457 6.1151 0 1 -4.6274 4.0759 4.1669 4.5457 6.1151 0 1 -3.6589 -4.9637 4.1669 4.5457 6.1151 0 1 4.6274 -4.0759 4.1669 4.5457 6.1151 0 1 3.6589 4.9637z" color="#000000" fill="url(#ag)" stroke="#000" stroke-linecap="round" stroke-linejoin="bevel" stroke-width="1.063"/>
  <path d="m275.77 285.15 0.12626 16.794s7.5682 9.514 33.209 9.5964c21.838 0.0702 33.082-10.354 33.082-10.354l-0.12627-15.279s-8.9341 7.0991-33.714 7.0711c-29.042-0.0328-32.577-7.8287-32.577-7.8287z" fill="url(#z)" fill-rule="evenodd" stroke="#000" stroke-width="1.063"/>
  <path transform="matrix(.98519 -.17145 .17145 .98519 0 0)" d="m268.89 325.9a4.1669 4.5457 0 0 1 -4.1669 4.5457 4.1669 4.5457 0 0 1 -4.1669 -4.5457 4.1669 4.5457 0 0 1 4.1669 -4.5457 4.1669 4.5457 0 0 1 4.1669 4.5457z" color="#000000" fill="url(#ah)" stroke="#000" stroke-linecap="round" stroke-linejoin="bevel" stroke-width="1.063"/>
  <path d="m308.92 263.73c-18.345-8e-5 -33.217 4.001-33.215 8.9362 2e-3 4.9344 14.872 8.9342 33.215 8.9342 18.343 8e-5 33.844-4.2523 33.846-9.1867 2e-3 -4.9352-15.501-8.6837-33.846-8.6836zm0.28125 2.4823c16.029 1.3e-4 29.025 2.9298 29.029 6.5444 4.7e-4 3.6153-12.996 6.5462-29.029 6.5464-16.034 1.1e-4 -29.032-2.9308-29.031-6.5464 4e-3 -3.6147 13.001-6.5445 29.031-6.5444z" color="#000000" fill="url(#af)" stroke="#000" stroke-linecap="round" stroke-linejoin="bevel" stroke-width="1.063"/>
  <path d="m337.26 304.47 4.5457-18.814 0.50507 15.531c-0.97845 1.0943-2.3976 2.1887-5.0508 3.283zm-18.309 6.0609 9.4702-18.94 8.8388 13.006c-4.981 3.3784-11.319 4.9006-18.309 5.9346zm-21.971 0 11.238-16.794 11.364 16.668c-7.9543 1.1856-15.294 1.8747-22.602 0.12627zm-17.425-6.0609 8.5863-13.006 9.7227 19.445c-6.3353-1.527-12.928-2.367-18.309-6.4397zm-3.7881-18.688 4.2931 19.193c-1.5152-0.91924-3.0304-1.7644-4.5457-3.6618z" fill="url(#w)" fill-rule="evenodd" stroke="#000" stroke-linejoin="bevel" stroke-width="1.063"/>
  <path d="m275.52 301.5c-1.3258-3.4093-0.50508 9.7858-0.50508 9.7858s6.8071 11.746 33.082 11.49c26.663-0.25948 33.966-8.46 33.966-8.46 1.0626-0.77891 1.1569-1.2218 1.1996-2.3991 0.0211-3.5987 0.5611-13.316-0.63138-10.543 0 0-12.563 10.353-35.482 10.165-8.4318 0.32919-25.843-3.1485-31.63-10.038z" fill="url(#y)" fill-rule="evenodd" stroke="#000" stroke-width="1.063"/>
  <g transform="translate(-1.796 .38879)" fill="#8a4708" stroke="#000">
   <path d="m249.82 262.54c-1.7015-0.68965-2.4722 1.9333-0.53572 2.5l45.497 9.7844c-0.14247-0.85077 0.0908-1.9541 0.44643-2.8048z" fill="#8a4708" fill-rule="evenodd" stroke="#000" stroke-width="1px"/>
  </g>
  <path d="m362.48 261.98c1.8181-0.25538 1.1713-2.9116-0.78858-2.4321l-41.403 13.613c0.4307 1.0204 0.64591 1.9812 0.5765 2.6682z" fill="#8a4708" fill-rule="evenodd" stroke="#000" stroke-width="1px"/>
  <path d="m274.64 301.11c4.993 5.0105 9.3794 5.7752 13.929 7.6786l-0.53572 10.893c-4.3157-0.98397-8.7811-3.3154-13.571-8.5714z" fill="url(#aa)" fill-rule="evenodd"/>
  <path d="m318.39 310.72c13.832-1.5555 19.481-5.8416 24.535-8.4839l0.2219 11.145c-4.8208 3.0566-12.317 7.0386-24.683 8.3486z" fill="url(#ab)" fill-rule="evenodd"/>
  <path d="m275.21 273.59c4.993 5.0105 9.8845 4.26 14.434 6.1633l-1.0408 11.398c-4.3157-0.98397-8.7811-2.3053-13.571-7.5613z" fill="url(#ad)" fill-rule="evenodd"/>
  <path d="m317.18 281.11c13.832-0.0402 19.986-2.5586 25.04-6.9686l0.2219 11.145c-6.0834 2.5516-12.317 5.7759-24.683 7.0859z" fill="url(#ac)" fill-rule="evenodd"/>
  <path d="m299.63 276.09a0.37246 0.37246 0 0 1 -0.37246 0.37246 0.37246 0.37246 0 0 1 -0.37246 -0.37246 0.37246 0.37246 0 0 1 0.37246 -0.37247 0.37246 0.37246 0 0 1 0.37246 0.37247z" color="#000000"/>
  <path d="m299 277.01a0.37246 0.37246 0 0 1 -0.37246 0.37246 0.37246 0.37246 0 0 1 -0.37246 -0.37246 0.37246 0.37246 0 0 1 0.37246 -0.37247 0.37246 0.37246 0 0 1 0.37246 0.37247z" color="#000000"/>
  <path d="m300.32 277.01a0.37246 0.37246 0 0 1 -0.37246 0.37246 0.37246 0.37246 0 0 1 -0.37246 -0.37246 0.37246 0.37246 0 0 1 0.37246 -0.37247 0.37246 0.37246 0 0 1 0.37246 0.37247z" color="#000000"/>
  <path d="m300.51 275.93a0.37246 0.37246 0 0 1 -0.37246 0.37246 0.37246 0.37246 0 0 1 -0.37246 -0.37246 0.37246 0.37246 0 0 1 0.37246 -0.37247 0.37246 0.37246 0 0 1 0.37246 0.37247z" color="#000000"/>
  <path d="m299.44 277.83a0.37246 0.37246 0 0 1 -0.37246 0.37246 0.37246 0.37246 0 0 1 -0.37246 -0.37246 0.37246 0.37246 0 0 1 0.37246 -0.37247 0.37246 0.37246 0 0 1 0.37246 0.37247z" color="#000000"/>
  <path d="m301.15 275.11a0.37246 0.37246 0 0 1 -0.37246 0.37246 0.37246 0.37246 0 0 1 -0.37246 -0.37246 0.37246 0.37246 0 0 1 0.37246 -0.37247 0.37246 0.37246 0 0 1 0.37246 0.37247z" color="#000000"/>
  <path d="m298.37 278.02a0.37246 0.37246 0 0 1 -0.37246 0.37246 0.37246 0.37246 0 0 1 -0.37246 -0.37246 0.37246 0.37246 0 0 1 0.37246 -0.37247 0.37246 0.37246 0 0 1 0.37246 0.37247z" color="#000000"/>
  <path d="m313.77 275.81a0.37246 0.37246 0 0 1 -0.37246 0.37246 0.37246 0.37246 0 0 1 -0.37246 -0.37246 0.37246 0.37246 0 0 1 0.37246 -0.37247 0.37246 0.37246 0 0 1 0.37246 0.37247z" color="#000000"/>
  <path d="m314.02 277.01a0.37246 0.37246 0 0 1 -0.37246 0.37246 0.37246 0.37246 0 0 1 -0.37246 -0.37246 0.37246 0.37246 0 0 1 0.37246 -0.37247 0.37246 0.37246 0 0 1 0.37246 0.37247z" color="#000000"/>
  <path d="m315.22 278.4a0.37246 0.37246 0 0 1 -0.37246 0.37246 0.37246 0.37246 0 0 1 -0.37246 -0.37246 0.37246 0.37246 0 0 1 0.37246 -0.37247 0.37246 0.37246 0 0 1 0.37246 0.37247z" color="#000000"/>
  <path d="m316.61 278.4a0.37246 0.37246 0 0 1 -0.37246 0.37246 0.37246 0.37246 0 0 1 -0.37246 -0.37246 0.37246 0.37246 0 0 1 0.37246 -0.37247 0.37246 0.37246 0 0 1 0.37246 0.37247z" color="#000000"/>
  <path d="m314.4 277.89a0.37246 0.37246 0 0 1 -0.37246 0.37246 0.37246 0.37246 0 0 1 -0.37246 -0.37246 0.37246 0.37246 0 0 1 0.37246 -0.37247 0.37246 0.37246 0 0 1 0.37246 0.37247z" color="#000000"/>
  <path d="m315.22 277.32a0.37246 0.37246 0 0 1 -0.37246 0.37246 0.37246 0.37246 0 0 1 -0.37246 -0.37246 0.37246 0.37246 0 0 1 0.37246 -0.37247 0.37246 0.37246 0 0 1 0.37246 0.37247z" color="#000000"/>
  <path d="m297.29 277.95a0.37246 0.37246 0 0 1 -0.37246 0.37246 0.37246 0.37246 0 0 1 -0.37246 -0.37246 0.37246 0.37246 0 0 1 0.37246 -0.37247 0.37246 0.37246 0 0 1 0.37246 0.37247z" color="#000000"/>
  <path d="m297.93 277.32a0.37246 0.37246 0 0 1 -0.37246 0.37246 0.37246 0.37246 0 0 1 -0.37246 -0.37246 0.37246 0.37246 0 0 1 0.37246 -0.37247 0.37246 0.37246 0 0 1 0.37246 0.37247z" color="#000000"/>
  <path d="m275.65 272.27-0.12627 12.248s2.2614 8.5895 32.451 8.3338c26.663-0.22584 34.219-7.1973 34.219-7.1973 0.68383 0.10497 0.58866-1.348 0.63134-2.5254l1e-5 -10.859s-0.14647 9.1003-35.355 9.2176c-29.523 0.0984-31.82-9.2176-31.82-9.2176z" fill="url(#x)" fill-rule="evenodd" stroke="#000" stroke-width="1.063"/>
 </g>
</svg>
